<svg width="360" height="120" viewBox="0 0 360 120" fill="none" xmlns="http://www.w3.org/2000/svg" role="img" aria-labelledby="title desc">
  <title id="title">Tiger AI</title>
  <desc id="desc">Angular metallic tiger head logo with cyan eyes and Tiger AI wordmark.</desc>
  <defs>
    <linearGradient id="metal" x1="21" y1="17" x2="145" y2="118" gradientUnits="userSpaceOnUse">
      <stop stop-color="#F5FAFF"/>
      <stop offset="0.42" stop-color="#9EADBA"/>
      <stop offset="1" stop-color="#E8EEF5"/>
    </linearGradient>
    <linearGradient id="word" x1="161" y1="29" x2="340" y2="97" gradientUnits="userSpaceOnUse">
      <stop stop-color="#F8FCFF"/>
      <stop offset="0.46" stop-color="#AEBBC7"/>
      <stop offset="1" stop-color="#EEF4FA"/>
    </linearGradient>
    <filter id="glow" x="-40%" y="-40%" width="180%" height="180%" color-interpolation-filters="sRGB">
      <feGaussianBlur stdDeviation="2.4" result="blur"/>
      <feMerge>
        <feMergeNode in="blur"/>
        <feMergeNode in="SourceGraphic"/>
      </feMerge>
    </filter>
  </defs>
  <path d="M35 18L59 30L83 21L107 30L132 18L122 45L134 65L124 91L101 106L82 99L64 106L40 91L30 65L43 45L35 18Z" stroke="url(#metal)" stroke-width="7" stroke-linejoin="miter"/>
  <path d="M59 44L74 34H92L108 45" stroke="url(#metal)" stroke-width="7" stroke-linejoin="miter"/>
  <path d="M51 57L72 68L62 86" stroke="url(#metal)" stroke-width="7" stroke-linejoin="miter"/>
  <path d="M113 57L93 68L103 86" stroke="url(#metal)" stroke-width="7" stroke-linejoin="miter"/>
  <path d="M72 82L82 88L93 82" stroke="url(#metal)" stroke-width="7" stroke-linecap="square"/>
  <path d="M63 57L49 52L55 64" stroke="#00B8E6" stroke-width="6" filter="url(#glow)"/>
  <path d="M101 57L116 52L109 64" stroke="#00B8E6" stroke-width="6" filter="url(#glow)"/>
  <path d="M160 37H246" stroke="url(#word)" stroke-width="15" stroke-linecap="square"/>
  <path d="M203 37V85" stroke="url(#word)" stroke-width="15" stroke-linecap="square"/>
  <path d="M263 37V85" stroke="url(#word)" stroke-width="15" stroke-linecap="square"/>
  <path d="M289 37H333V59H304V85H333" stroke="url(#word)" stroke-width="15" stroke-linejoin="miter"/>
  <path d="M162 100L185 59L209 100" stroke="url(#word)" stroke-width="13" stroke-linejoin="miter"/>
  <path d="M232 59V100" stroke="url(#word)" stroke-width="13" stroke-linecap="square"/>
</svg>

